<svg id="Layer_2" xmlns="http://www.w3.org/2000/svg" viewBox="0 0 375.4 432.8"><style>.st00{fill:#46ac34}.st11{fill:#74b72d}.st22{fill:#cde1aa}.st33{fill:#fff}.st44{fill:#2a2827}</style><path class="st00" d="M145.4 422.2s-20.9-29.3-10.7-55.5c10.1-26.2 37.1-24.5 41.1-54.8s-7.5-30.9-15.2-48.5-6.2-26.4 0-40.6c6.2-14.2-2.1-67.6-26.6-74.5s-41.5-23.4-47.6-42c-6.1-18.6-15-49.3-36-36.4s-30.7 43.9-35.9 62.8-3.6 41.6-6.5 48.1-6.8 42.5 3.5 61.3S39 283.8 42.6 285c3.7 1.2 4.8 15.9 11.5 27.4s39.2 46.7 41.8 56.5c2.7 9.9 29.7 44.7 49.5 53.3zM245.1 413.2c4.4-12.9 4.9-42.5-12.6-68.2-17.6-25.7-20.5-58.3-13-69.9s15-20 31.7-29.3 13.2-25.5 17.9-31.4c4.7-5.9 15-15.2 20.8-22.6 6-7.7 11.1-17 13.6-26.8s11.3-27.1 16.7-42.3 13.9-26.4 13.9-26.4 11.4 12.3 16.7 21.9c5.3 9.5 26.9 57.4 18.6 90.3s-19.3 54.2-22.6 63.3c-3.3 9.1-7.8 21.6-15.7 27.7s-19.9 11.7-19.4 14.8-9.5 28.5-27.2 41.1c-17.7 12.5-13.5 20.7-21.8 32-8.4 11.2-17.6 25.8-17.6 25.8z"/><path class="st11" d="M199.1 280.7c1.6-2.7.6-50.5 12.4-59 11.7-8.4 16.1-24.7 39.7-24.3 26.2.5 37.8-14.8 39.3-17.1 1.5-2.3 11.9-8.8 15.6-20.6 4.4-14.2 22.3-41.1 27.1-77.1 3.2-24.3-28.5-33.2-28.5-33.2s-16.3-24.9-33.2-29.7-29.6-5.5-29.6-5.5-29.9-11.3-61-11.3-57.5 20-57.5 20-27.7-3-38.7 10.9-23.9 14.3-24.5 21 5.3 10.1 9.5 15 14.2 27.9 16.6 36.4 11.6 28.6 43.3 36.5c9.7 8.9 33 38.6 32.9 50.4-.1 11.8-1.9 41.7-1.9 41.7s17.6 9.8 26.1 22.6c16.2 24.6 12.4 23.3 12.4 23.3z"/><path class="st22" d="M286 192.6c-9.2 12.5-13.9 16.1-13.9 16.1s-1 28.1-24.5 37.2-34.1 34.4-30.6 54c3.5 19.5 14 37 14 37s7.9 39.7-36.2 47.2c0 0-23.7-4-29.6-14.3-10.4-12.5-19.2-15.5-19.2-15.5s9.1-9.1 17.5-21.3c8.4-12.3 22.4-22.1 4.6-55.9s-14.3-37.5-11.9-40.3c3.2-3.7 18.2 4.4 29.5 14.9 17.9 16.6 13 30.2 13 30.2s1.3-49.3 13.4-63.2 36.5-25.5 48.4-25.7c9.4-.2 22.7-9.4 25.5-.4"/><path class="st33" d="M192.1 426.9c-20.1.2-48 3-54.9-19.3-7-22.3-7.1-39.4 0-45.9 7.1-6.4 12.8-11.7 21.6 1.3s10.6 21.7 31.3 21.3 34.2-12.9 36.1-27.5 2.9-23.4 8.2-11.5c5.3 11.8 30.4 59.3 3.1 71.9s-45.4 9.7-45.4 9.7z"/><path class="st44" d="M372.3 160.3c-6.6-31.8-22-54.7-30.6-65.6-.6-.8-1.4-1.5-2.2-2-.2-8.2-3-17.3-7.9-25.3-6.5-10.7-15.6-18-25.8-20.8-11-19.9-27.4-28.4-39.3-32-10.8-3.3-19.8-3.3-23.1-3.2C200-8.4 143.8-.3 122.3 20.1 86.7 21.4 63.2 43 55 64.7 10.2 82.4 6.8 160.7 6.5 170c-11.2 30.5-8 61.6 9.4 90.1 10.9 17.8 23.9 29.4 28.5 33.1 1.8 19.6 19.7 40.9 33 56.6l.5.6c16.7 19.8 28.7 34.6 43.1 60.1 11.8 21 40.5 21.6 63.5 22.1 1.4 0 2.7.1 4.1.1 3.5.1 6.8.1 10 .1 15.8 0 28-1.5 39.8-9 8.3-5.3 17.7-12.1 25-25.8 9.6-17.9 16.3-30.4 18.4-34.4 25.4-11.4 32.8-39.6 34.5-48.7 27.5-9.7 32.7-31.7 33.5-36.8 23-39.1 30.6-78.8 22.5-117.8zM309 57.2c12.9 6.6 20.8 22.3 21.6 34.5-2.4.9-4.3 2.6-5.4 5-5.1 11-14.5 32.3-20.8 53.7-8.3 20.8-18.8 39.7-55.3 42.8-18.7 1.6-33.8 11.1-43.5 27.4-1.3 2.2-2.5 4.5-3.6 6.9-.6-6.9-1.3-13.6-2.1-20.1 1.5-5.7 12.4-42.2 47.6-67.1 54.5-38.4 65.7-59.7 61.5-83.1zM168.6 273.8c-6.7-11-12.7-20.8-9.8-32.4 37.2 8.6 35.6 69.4 35.6 70h.1c-.3 5.9-.7 11.6-1.2 17.3-.8 9.3-3 17.7-5.2 25.9-2.3 8.9-4.5 17.4-4.4 25.5-8.5-2.4-12.5-8.2-16.6-14.3-3.2-4.8-6.8-10-12.7-12.6C171.5 337.8 180 324 181 310c1.1-14.1-5.8-25.3-12.4-36.2zm-6.2-95.6c-4.9-10.8-12-20.1-19.2-27 42.2 10.5 45.1 36.6 45.3 37.8 0 .1 0 .3.1.4 3.4 19.5 5.5 42 6.4 65.2-.3 2.9-.5 5.8-.5 8.7-7-16.2-18-26.4-32.2-30.2 11.1-21.2 6.2-41.5.1-54.9zM123.6 139c-24-5.4-29.9-24.3-35.6-42.6-1.6-5.1-3.1-10-5-14.5 35-2.5 59.7 17.9 66.3 24 .7.9 1.3 1.8 2 2.6 9.6 12.9 17.5 23.5 26.6 48.9-10.9-8.3-27.8-15.8-54.3-18.4zm73 217.8c2.1-8.1 4.5-17.3 5.4-27.3 2.1-23.7 2.6-49.5 1.7-74.5.9-8.2 3.3-19.4 9.5-29.9 8.3-14 20.6-21.8 36.7-23.2 15.3-1.3 26.7-5.3 35.5-10.9-3.1 4.2-7.3 9.2-13.2 15-4.6 4.5-6.2 11.5-7.8 18.2-1.1 4.7-2.3 9.6-4.2 11.5-6.9 6.9-11.6 9.3-16.6 11.9-4 2.1-8.2 4.2-13.2 8.6-29.7 26-16.4 63.2-9.4 74.2 1.4 2.1 3 4.8 4.7 7.7.2 28.4-9.4 42-30.2 43-1 0-1.9.1-2.9 0-.5-7.1 1.6-15.2 4-24.3zm-1.6-92.2h.2v.6c-.1-.2-.1-.4-.2-.6zM298.7 52.1c3.2 10.8 3.8 20.5-3.5 32.7-7.9 13.2-24.6 28.5-52.7 48.3-25 17.6-38.5 40.3-45.2 55.7 0-.2-.1-.5-.1-.8-.1-1.3-.9-6.7-4.5-13.5-3.2-10.8-6.3-19.7-9.2-27.2-4.7-45.4 4.2-81.8 25.7-105.2 15.2-16.5 31.8-21.4 34.1-22 3.8-.2 37.7-1.5 55.4 32zM128.1 26.7c15.6-15 61.3-25.4 102.3-11.1-7.5 3.5-17.6 9.6-27.4 20.1-23.6 25.4-29.8 60.1-29.6 90.2-5-8.9-9.9-15.5-15.2-22.6-.3-.5-.7-.9-1-1.4l.3-.2c-.2-.2-.7-.8-1.7-1.7-4.5-6.1-9.2-12.7-14.5-21.6-16.8-28.5-14.1-47.4-13.2-51.7zm-9.2 2.4c-1 9.1-.3 28.1 14.9 53.8L135 85c-13.7-7.5-33-14.1-56.6-11.4-4.4-6.3-9.2-9-13.5-9.9 8.1-16.7 26.7-32.3 54-34.6zM28.2 234.2c.5 14.9 3.2 27.2 6 36.4-3.6-4.3-7.4-9.4-10.9-15.2-16.1-26.8-18.9-54.7-8.3-83 .2-.5.3-1 .3-1.5 0-.8 1.8-83.6 44.3-98.5 1.9-.4 6.8-.9 12.1 7.1 3.3 5 5.5 12.1 7.9 19.7.6 1.8 1.2 3.7 1.8 5.6l-.3-.2c-45.5 52-53.9 99.2-52.9 129.6zm8.8-.3c-.9-28.1 6.7-71.5 47.7-120 5.2 13 13.3 25.7 30.2 31.8 15.6 70.9-23.2 94.1-40.6 100.8-19.1 7.3-26.5 18.9-29.2 28.6-3.4-8.7-7.5-22.9-8.1-41.2zm16.1 56.9c0-.3-.1-.7-.1-1 0-.1-1.4-5.8.7-12.9 2.9-9.9 10.9-17.4 23.8-22.3 12.1-4.6 28.8-14.3 39.7-34.2 10.4-19.1 12.9-43.3 7.4-71.9 8.3 3.5 22.1 15.9 30 33.4 5.3 11.8 9.6 29.7-.4 48-9.7 17.8-2.6 32.3 5 45.1-14.4 27.6-35.4 41.7-62.6 42h-.9c-19 0-34.6-7-37-8.1-3.3-6.3-5.5-12.4-5.6-18.1zm75.5 115.4c-14.8-26.1-27-41.3-44-61.5l-.5-.6c-5.5-6.5-12.3-14.6-18.1-23 7.4 2.3 17.8 4.7 29.5 4.7h.6c20.4-.1 48.2-7.8 68.1-42.1 4.8 8.2 8.7 16.4 8 25.7-.9 13-10.9 27.1-30.6 43.1-11.2 9.1-16 25.4-12.5 42.6 1.5 7.7 4.5 14.7 8.5 20.5-3.6-2.4-6.7-5.4-9-9.4zm104.8 10.3c-12 7.6-24.8 7.8-44.6 7.4-1.4 0-2.7-.1-4.1-.1-8-.2-16.4-.4-24.3-1.3-10.9-3.4-19.8-14.8-22.6-29.1-2.7-13.4.5-26 8.4-33.2 6.3.1 9.1 3.8 13.6 10.5 5.6 8.2 13.1 19.3 33.3 19.3.9 0 1.8 0 2.7-.1 21.6-1 34.1-13.3 37.6-36.7 3.3 7.2 6.4 15.1 8.3 23.1 4.4 18.6 1.6 32.1-8.3 40.2zM308 311c0 .3-4.6 34.2-31.1 45.1-.9.4-1.7 1.1-2.2 2-.1.1-7.4 14-19.1 35.7-1.2 2.2-2.4 4.2-3.7 6 4.1-27.3-15.8-61.8-23.7-74.1-6-9.3-17.3-40.9 7.8-62.8 4.2-3.7 7.6-5.4 11.5-7.4 2.7-1.4 5.6-2.9 8.9-5.2-2.6 11.3-4 25.8 3.5 36 5.5 7.6 14.9 11.4 27.8 11.4 12.1 0 18.1 7.8 20.6 12.2-.1.4-.2.7-.3 1.1zm28.4-22.3c-4.6 7.6-11.5 13.2-20.5 16.9-4.2-7.4-13.2-16.6-28.2-16.6-10 0-17-2.7-20.7-7.8-8.1-11-1.5-31.7 1.3-40.6.3-1 .6-1.8.8-2.6 1.7-3.3 2.7-7.4 3.7-11.7 1.3-5.5 2.7-11.3 5.5-14 10.4-10.3 16-18.3 19.6-24.3.4 51.6 33.8 82.9 42.8 90.5-.5 2.2-1.7 6-4.3 10.2zm8-18.8c-10.2-9.3-37.6-38.2-37.7-82.6-.1-26.9 18.5-69.8 26.5-87 .2-.4.5-.5.8-.6h.1c.2 0 .5.1.7.4 8.1 10.2 22.7 31.9 28.9 61.9 7.4 35.6.9 71.9-19.3 107.9z"/></svg>