<?xml version="1.0" encoding="utf-8"?>
<!-- Generator: Adobe Illustrator 20.1.0, SVG Export Plug-In . SVG Version: 6.00 Build 0)  -->
<svg version="1.1" id="icons" xmlns="http://www.w3.org/2000/svg" xmlns:xlink="http://www.w3.org/1999/xlink" x="0px" y="0px"
	 width="32px" height="32px" viewBox="0 0 32 32" style="enable-background:new 0 0 32 32;" xml:space="preserve">
<g>
	<path style="fill:#909997;" d="M16,9.002L8.45,1.45c-1.933-1.933-5.067-1.933-7,0v0c-1.933,1.933-1.933,5.067,0,7l2.5,2.5v2.515
		c0,1.591,0.632,3.117,1.757,4.243c2.343,2.343,6.142,2.343,8.485,0L16,15.899V9.002z"/>
	<path style="fill:#838C8A;" d="M16,9.002l7.55-7.553c1.933-1.933,5.067-1.933,7,0v0c1.933,1.933,1.933,5.067,0,7l-2.5,2.5v2.515
		c0,1.591-0.632,3.117-1.757,4.243c-2.343,2.343-6.142,2.343-8.485,0L16,15.899V9.002z"/>
	<path style="fill:#F7F7F7;" d="M8.253,28.52L6.097,15.582C6.046,15.277,6.281,15,6.59,15h3.82c0.309,0,0.544,0.277,0.493,0.582
		L8.747,28.52C8.7,28.799,8.3,28.799,8.253,28.52z"/>
	<path style="fill:#EDEEEE;" d="M23.253,28.52l-2.156-12.938C21.046,15.277,21.281,15,21.59,15h3.82
		c0.309,0,0.544,0.277,0.493,0.582L23.747,28.52C23.7,28.799,23.3,28.799,23.253,28.52z"/>
	<path style="fill:#373F3F;" d="M13,13c0-0.057,0.014-0.111,0.017-0.167l-4.373-1.312c-0.15-0.045-0.315-0.017-0.442,0.078
		S8,11.842,8,12v3h1v-2.328l4.159,1.248C13.063,13.629,13,13.324,13,13z"/>
	<path style="fill:#2B3332;" d="M23.798,11.599c-0.127-0.095-0.292-0.123-0.442-0.078l-4.373,1.312C18.986,12.889,19,12.943,19,13
		c0,0.324-0.063,0.629-0.159,0.92L23,12.672V15h1v-3C24,11.842,23.925,11.693,23.798,11.599z"/>
	<path style="fill:#FFD04D;" d="M18.221,15H16v10.822h0.631c0.579,0,1.166-0.097,1.678-0.368C20.093,24.509,21,22.425,21,20
		C21,17.657,19.887,15.988,18.221,15z"/>
	<path style="fill:#FFD96C;" d="M16,15h-2.221C12.113,15.988,11,17.657,11,20c0,2.425,0.907,4.509,2.691,5.454
		c0.512,0.271,1.099,0.368,1.678,0.368H16V15z"/>
	<path style="fill:#FFD04D;" d="M16,10c-1.657,0-3,1.343-3,3c0,0.772,0.3,1.468,0.779,2H16V10z"/>
	<path style="fill:#F7C845;" d="M16,10v5h2.221C18.7,14.468,19,13.772,19,13C19,11.343,17.657,10,16,10z"/>
	<path style="fill:#373F3F;" d="M16,17h-4.24c-0.348,0.575-0.576,1.253-0.688,2H16V17z"/>
	<path style="fill:#2B3332;" d="M16,17h4.24c0.348,0.575,0.576,1.253,0.688,2H16V17z"/>
	<path style="fill:#373F3F;" d="M16,21h-4.946c0.079,0.72,0.244,1.392,0.497,2H16V21z"/>
	<path style="fill:#2B3332;" d="M15.999,21h4.946c-0.079,0.72-0.244,1.392-0.497,2h-4.449V21z"/>
	<path style="fill:#FFD96C;" d="M16,5.66c-2.209,0-4,1.791-4,4c0,1.74,2.482,3.221,3.536,3.771c0.147,0.076,0.305,0.115,0.464,0.115
		V5.66z"/>
	<path style="fill:#FFD04D;" d="M16.464,13.431C17.518,12.881,20,11.4,20,9.66c0-2.209-1.791-4-4-4v7.886
		C16.159,13.545,16.318,13.507,16.464,13.431z"/>
	<path style="fill:#E85160;" d="M14.477,9.74c0.192,1.088-0.638,2.143-1.13,2.23c-0.492,0.087-1.633-0.621-1.825-1.709
		c-0.192-1.088,0.314-2.086,1.13-2.23C13.469,7.887,14.285,8.652,14.477,9.74z"/>
	<path style="fill:#D84459;" d="M20.477,10.26c-0.192,1.088-1.332,1.796-1.825,1.709c-0.492-0.087-1.322-1.142-1.13-2.23
		s1.009-1.853,1.825-1.709C20.163,8.174,20.669,9.173,20.477,10.26z"/>
	<circle style="fill:#FFFFFF;" cx="12.5" cy="9.5" r="0.5"/>
	<circle style="fill:#F7F7F7;" cx="19.5" cy="9.5" r="0.5"/>
	<path style="fill:#F7C845;" d="M16.631,25.822H16v5.397c0.105,0,0.211-0.063,0.243-0.189l1.328-5.311
		C17.263,25.789,16.947,25.822,16.631,25.822z"/>
	<path style="fill:#FFD04D;" d="M14.43,25.719l1.328,5.311c0.032,0.126,0.137,0.189,0.243,0.189v-5.397h-0.631
		C15.053,25.822,14.737,25.789,14.43,25.719z"/>
	<path style="fill:#373F3F;" d="M13.777,6.335c0.279-0.187,0.588-0.325,0.91-0.437l-0.711-2.217
		c-0.048-0.149-0.163-0.268-0.311-0.319c-0.148-0.051-0.312-0.032-0.442,0.056L10.639,5.14c-0.23,0.153-0.292,0.464-0.139,0.693
		c0.153,0.23,0.464,0.292,0.693,0.139l2.033-1.355L13.777,6.335z"/>
	<path style="fill:#2B3332;" d="M21.361,5.14l-2.584-1.723c-0.13-0.088-0.295-0.107-0.442-0.056
		c-0.148,0.052-0.263,0.17-0.311,0.319l-0.711,2.217c0.322,0.112,0.632,0.251,0.91,0.437l0.551-1.719l2.033,1.355
		c0.23,0.153,0.54,0.091,0.693-0.139C21.653,5.604,21.591,5.293,21.361,5.14z"/>
</g>
</svg>
