<?xml version="1.0" encoding="utf-8"?>
<!-- Generator: Adobe Illustrator 20.1.0, SVG Export Plug-In . SVG Version: 6.00 Build 0)  -->
<svg version="1.1" id="icons" xmlns="http://www.w3.org/2000/svg" xmlns:xlink="http://www.w3.org/1999/xlink" x="0px" y="0px"
	 width="32px" height="32px" viewBox="0 0 32 32" style="enable-background:new 0 0 32 32;" xml:space="preserve">
<g>
	<g>
		<path style="fill:#F7F7F7;" d="M31.534,13.011c-1.661,5.267-10.286,17.727-15.553,16.065c-5.267-1.661-5.182-16.815-3.521-22.082
			s7.278-8.19,12.545-6.529S33.196,7.744,31.534,13.011z"/>
		<path style="fill:#EDEEEE;" d="M31.534,13.011c-1.661,5.267-10.286,17.727-15.553,16.065l9.024-28.61
			C30.273,2.127,33.196,7.744,31.534,13.011z"/>
	</g>
	<path style="fill:#529CCF;" d="M20.28,27.191c-0.756,1.322,0.072,3.203,1.851,4.202c1.778,0.999,3.833,0.738,4.589-0.584
		c0.756-1.322-0.072-3.203-1.851-4.202C23.091,25.608,21.036,25.869,20.28,27.191z"/>
	<path style="fill:#5CA3D5;" d="M11.72,27.191c0.756,1.322-0.072,3.203-1.851,4.202c-1.778,0.999-3.833,0.738-4.589-0.584
		c-0.756-1.322,0.072-3.203,1.851-4.202C8.909,25.608,10.964,25.869,11.72,27.191z"/>
	<path style="fill:#65A9DC;" d="M16,3v27c7.732,0,14-4.994,14-12.521S23.732,3,16,3z"/>
	<path style="fill:#71B1E1;" d="M2,17.479C2,25.006,8.268,30,16,30V3C8.268,3,2,9.952,2,17.479z"/>
	<g>
		<path style="fill:#FFFFFF;" d="M16,15c-4.418,0-8,3.134-8,7c0,3.866,3.582,7,8,7V15z"/>
		<path style="fill:#F7F7F7;" d="M24,22c0-3.866-3.582-7-8-7v14C20.418,29,24,25.866,24,22z"/>
		<path style="fill:#373F3F;" d="M16,20.537v0.75c-1.06,0.012-1.762,0.433-1.762,0.714S14.94,22.701,16,22.714v0.75
			c-1.434-0.013-2.512-0.636-2.512-1.463S14.566,20.55,16,20.537z M11.307,22c0,1.999,2.102,3.624,4.693,3.644v-0.75
			c-2.178-0.018-3.943-1.308-3.943-2.894c0-1.587,1.766-2.877,3.943-2.895v-0.75C13.408,18.375,11.307,20,11.307,22z M16,27.077
			C12.619,27.057,9.875,24.788,9.875,22s2.744-5.058,6.125-5.078v-0.75C12.205,16.193,9.125,18.798,9.125,22
			c0,3.201,3.08,5.806,6.875,5.827V27.077z"/>
		<path style="fill:#2B3332;" d="M16.046,21.284c-0.016,0-0.03,0.002-0.046,0.002v-0.75c0.016,0,0.03-0.003,0.046-0.003
			c0.207,0,0.375,0.168,0.375,0.375S16.253,21.284,16.046,21.284z M19.693,20.909c0-1.435-1.603-2.558-3.647-2.558
			c-0.016,0-0.03,0.003-0.046,0.004v0.75c0.016,0,0.03-0.003,0.046-0.003c1.57,0,2.897,0.828,2.897,1.808s-1.327,1.807-2.897,1.807
			c-0.016,0-0.03-0.002-0.046-0.002v0.75c0.016,0,0.03,0.003,0.046,0.003C18.091,23.466,19.693,22.343,19.693,20.909z
			 M16.421,27.454c0-0.207-0.168-0.375-0.375-0.375c-0.016,0-0.03-0.002-0.046-0.002v0.75c0.015,0,0.03,0.002,0.046,0.002
			C16.253,27.829,16.421,27.661,16.421,27.454z M16.046,16.17c-0.016,0-0.03,0.002-0.046,0.002v0.75c0.015,0,0.03-0.002,0.046-0.002
			c2.801,0,5.079,1.79,5.079,3.989s-2.278,3.988-5.079,3.988c-0.016,0-0.03-0.003-0.046-0.003v0.75c0.016,0,0.03,0.004,0.046,0.004
			c3.214,0,5.829-2.126,5.829-4.738C21.875,18.296,19.26,16.17,16.046,16.17z"/>
	</g>
	<g>
		<path style="fill:#FCD8DE;" d="M16,13c-1.657,0-3,1.119-3,2.5c0,1.381,1.343,2.5,3,2.5V13z"/>
		<path style="fill:#FBCFD6;" d="M19,15.5c0-1.381-1.343-2.5-3-2.5v5C17.657,18,19,16.881,19,15.5z"/>
		<path style="fill:#373F3F;" d="M16,14c-0.828,0-1.5,0.448-1.5,1c0,0.552,0.672,1,1.5,1V14z"/>
		<path style="fill:#2B3332;" d="M17.5,15c0-0.552-0.672-1-1.5-1v2C16.828,16,17.5,15.552,17.5,15z"/>
	</g>
	<g>
		<path style="fill:#F7F7F7;" d="M19.579,12.078c1.064,1.725,3.235,2.417,4.848,1.545c1.613-0.871,2.058-2.976,0.994-4.701
			s-3.235-2.417-4.848-1.545C18.959,8.248,18.514,10.353,19.579,12.078z"/>
		<path style="fill:#2B3332;" d="M19.579,12.078c0,0,1.691,1.689,4.126,0.374s1.716-3.53,1.716-3.53
			c-1.064-1.725-3.235-2.417-4.848-1.545C18.959,8.248,18.514,10.353,19.579,12.078z"/>
	</g>
	<g>
		<g>
			<path style="fill:#FFFFFF;" d="M12.421,12.078c-1.064,1.725-3.235,2.417-4.848,1.545s-2.058-2.976-0.994-4.701
				s3.235-2.417,4.848-1.545S13.486,10.353,12.421,12.078z"/>
			<path style="fill:#373F3F;" d="M12.421,12.078c0,0-1.691,1.689-4.126,0.374s-1.716-3.53-1.716-3.53
				c1.064-1.725,3.235-2.417,4.848-1.545S13.486,10.353,12.421,12.078z"/>
		</g>
	</g>
	<circle style="fill:#F7F7F7;" cx="22" cy="9" r="1"/>
	<circle style="fill:#FFFFFF;" cx="10" cy="9" r="1"/>
</g>
</svg>
